# Blender v2.93.5 OBJ File: 'Cat.blend'
# www.blender.org
mtllib Cat.mtl
o Cube_Cube.001
v 0.918783 2.041583 0.717949
v 1.000000 2.000000 -0.857869
v 0.333333 1.913775 -1.083724
v 1.000000 1.333333 -1.000000
v 0.866462 0.761809 -0.850118
v 1.144377 2.996743 0.168421
v 1.000000 1.333333 1.000000
v 0.868949 0.797324 0.814989
v 0.333333 1.957806 1.000000
v 0.333333 2.000000 -0.333333
v 0.333333 2.000000 0.333333
v 0.333333 0.666667 0.980367
v 0.333333 1.333333 1.125374
v 0.922142 0.666667 -0.333333
v 0.926233 0.666667 0.333333
v 1.284554 1.333333 -0.333333
v 1.347538 1.333333 0.333333
v 0.333333 0.666667 -0.952764
v 0.333333 1.333333 -1.116450
v 0.000000 0.000000 0.000000
v -0.918783 2.041583 0.717949
v -1.000000 2.000000 -0.857869
v -0.333333 1.913775 -1.083724
v -1.000000 1.333333 -1.000000
v -0.866462 0.761809 -0.850118
v -1.144377 2.996743 0.168421
v -1.000000 1.333333 1.000000
v -0.868949 0.797324 0.814989
v -0.333333 1.957806 1.000000
v -0.333333 2.000000 -0.333333
v -0.333333 2.000000 0.333333
v -0.333333 0.666667 0.980367
v -0.333333 1.333333 1.125374
v -0.922142 0.666667 -0.333333
v -0.926233 0.666667 0.333333
v -1.284554 1.333333 -0.333333
v -1.347538 1.333333 0.333333
v -0.333333 0.666667 -0.952764
v -0.333333 1.333333 -1.116450
v 0.000000 1.856263 -1.127611
v 0.000000 1.881499 1.000000
v 0.000000 2.000000 -0.333333
v 0.000000 2.000000 0.333333
v 0.000000 0.666667 1.000000
v 0.000000 1.333333 1.191929
v 0.000000 0.666667 -0.975131
v 0.000000 1.333333 -1.112260
vt 0.541667 0.416667
vt 0.625000 0.416667
vt 0.625000 0.500000
vt 0.541667 0.500000
vt 0.541667 0.666667
vt 0.625000 0.666667
vt 0.625000 0.750000
vt 0.541667 0.750000
vt 0.708333 0.666667
vt 0.708333 0.750000
vt 0.708333 0.500000
vt 0.708333 0.583333
vt 0.625000 0.583333
vt 0.375000 0.750000
vt 0.458333 0.750000
vt 0.458333 0.833333
vt 0.541667 0.833333
vt 0.625000 0.833333
vt 0.375000 0.666667
vt 0.458333 0.666667
vt 0.375000 0.500000
vt 0.458333 0.500000
vt 0.458333 0.583333
vt 0.375000 0.583333
vt 0.541667 0.583333
vt 0.375000 0.416667
vt 0.458333 0.416667
vt 0.375000 0.375000
vt 0.458333 0.375000
vt 0.541667 0.375000
vt 0.625000 0.375000
vt 0.625000 0.875000
vt 0.541667 0.875000
vt 0.458333 0.875000
vt 0.375000 0.833333
vt 0.750000 0.583333
vt 0.750000 0.666667
vt 0.750000 0.500000
vt 0.750000 0.750000
vt 0.541667 0.416667
vt 0.541667 0.500000
vt 0.625000 0.500000
vt 0.625000 0.416667
vt 0.541667 0.666667
vt 0.541667 0.750000
vt 0.625000 0.750000
vt 0.625000 0.666667
vt 0.708333 0.750000
vt 0.708333 0.666667
vt 0.625000 0.583333
vt 0.708333 0.583333
vt 0.708333 0.500000
vt 0.458333 0.833333
vt 0.458333 0.750000
vt 0.541667 0.833333
vt 0.625000 0.833333
vt 0.458333 0.666667
vt 0.458333 0.583333
vt 0.458333 0.500000
vt 0.541667 0.583333
vt 0.458333 0.416667
vn 0.2382 0.1349 -0.9618
vn 0.8164 0.2000 0.5418
vn -0.4037 0.7427 0.5342
vn -0.3643 0.8081 -0.4630
vn -0.7757 0.6312 0.0000
vn 0.3399 -0.8274 0.4471
vn 0.2543 -0.2816 0.9252
vn 0.2775 0.2963 0.9139
vn 0.4916 -0.8239 0.2820
vn 0.8325 -0.4351 0.3430
vn 0.5224 -0.8268 -0.2085
vn 0.5850 -0.8110 -0.0036
vn 0.8779 -0.3859 -0.2834
vn 0.8613 -0.5063 -0.0433
vn 0.9353 0.1454 -0.3226
vn 0.9894 0.1116 -0.0935
vn 0.2443 -0.8326 -0.4971
vn 0.1934 -0.2604 -0.9459
vn 0.0378 -0.8249 -0.5640
vn 0.0266 -0.2200 -0.9751
vn 0.0581 0.0157 -0.9982
vn 0.0663 0.2606 0.9632
vn 0.1244 -0.2431 0.9620
vn 0.0327 -0.8316 0.5544
vn 0.0000 1.0000 0.0000
vn -0.0754 0.9863 -0.1468
vn -0.1129 0.9865 0.1189
vn -0.2382 0.1349 -0.9618
vn -0.8164 0.2000 0.5418
vn 0.4037 0.7427 0.5342
vn 0.3643 0.8081 -0.4630
vn 0.7757 0.6312 0.0000
vn -0.3399 -0.8274 0.4471
vn -0.2543 -0.2816 0.9252
vn -0.2775 0.2963 0.9139
vn -0.4916 -0.8239 0.2820
vn -0.8325 -0.4351 0.3430
vn -0.5224 -0.8268 -0.2085
vn -0.5850 -0.8110 -0.0036
vn -0.8779 -0.3859 -0.2834
vn -0.8613 -0.5063 -0.0433
vn -0.9353 0.1454 -0.3226
vn -0.9894 0.1116 -0.0935
vn -0.2443 -0.8326 -0.4971
vn -0.1934 -0.2604 -0.9459
vn -0.0378 -0.8249 -0.5640
vn -0.0266 -0.2200 -0.9751
vn -0.0581 0.0157 -0.9982
vn -0.0663 0.2606 0.9632
vn -0.1244 -0.2431 0.9620
vn -0.0327 -0.8316 0.5544
vn 0.0754 0.9863 -0.1468
vn 0.1129 0.9865 0.1189
usemtl Material.001
s off
f 19/1/1 3/2/1 2/3/1 4/4/1
f 17/5/2 6/6/2 1/7/2 7/8/2
f 6/6/3 11/9/3 9/10/3 1/7/3
f 2/3/4 3/11/4 10/12/4 6/13/4
f 6/13/5 10/12/5 11/9/5
f 20/14/6 8/15/6 12/16/6
f 8/15/7 7/8/7 13/17/7 12/16/7
f 7/8/8 1/7/8 9/18/8 13/17/8
f 20/19/9 15/20/9 8/15/9
f 15/20/10 17/5/10 7/8/10 8/15/10
f 20/21/11 5/22/11 14/23/11
f 20/24/12 14/23/12 15/20/12
f 5/22/13 4/4/13 16/25/13 14/23/13
f 14/23/14 16/25/14 17/5/14 15/20/14
f 4/4/15 2/3/15 6/13/15 16/25/15
f 16/25/16 6/6/16 17/5/16
f 20/26/17 18/27/17 5/22/17
f 18/27/18 19/1/18 4/4/18 5/22/18
f 20/28/19 46/29/19 18/27/19
f 46/29/20 47/30/20 19/1/20 18/27/20
f 47/30/21 40/31/21 3/2/21 19/1/21
f 13/17/22 9/18/22 41/32/22 45/33/22
f 12/16/23 13/17/23 45/33/23 44/34/23
f 20/35/24 12/16/24 44/34/24
f 10/12/25 42/36/25 43/37/25 11/9/25
f 3/11/26 40/38/26 42/36/26 10/12/26
f 11/9/27 43/37/27 41/39/27 9/10/27
f 39/40/28 24/41/28 22/42/28 23/43/28
f 37/44/29 27/45/29 21/46/29 26/47/29
f 26/47/30 21/46/30 29/48/30 31/49/30
f 22/42/31 26/50/31 30/51/31 23/52/31
f 26/50/32 31/49/32 30/51/32
f 20/14/33 32/53/33 28/54/33
f 28/54/34 32/53/34 33/55/34 27/45/34
f 27/45/35 33/55/35 29/56/35 21/46/35
f 20/19/36 28/54/36 35/57/36
f 35/57/37 28/54/37 27/45/37 37/44/37
f 20/21/38 34/58/38 25/59/38
f 20/24/39 35/57/39 34/58/39
f 25/59/40 34/58/40 36/60/40 24/41/40
f 34/58/41 35/57/41 37/44/41 36/60/41
f 24/41/42 36/60/42 26/50/42 22/42/42
f 36/60/43 37/44/43 26/47/43
f 20/26/44 25/59/44 38/61/44
f 38/61/45 25/59/45 24/41/45 39/40/45
f 20/28/46 38/61/46 46/29/46
f 46/29/47 38/61/47 39/40/47 47/30/47
f 47/30/48 39/40/48 23/43/48 40/31/48
f 33/55/49 45/33/49 41/32/49 29/56/49
f 32/53/50 44/34/50 45/33/50 33/55/50
f 20/35/51 44/34/51 32/53/51
f 30/51/25 31/49/25 43/37/25 42/36/25
f 23/52/52 30/51/52 42/36/52 40/38/52
f 31/49/53 29/48/53 41/39/53 43/37/53
