# Blender v2.93.5 OBJ File: 'Cat.blend'
# www.blender.org
mtllib Cat_body.mtl
o Cat_body_Cube
v 0.434584 -0.905894 0.392321
v 0.064423 1.957378 0.064423
v 0.506503 -0.905894 0.254984
v 0.621740 1.290711 0.626000
v 0.548983 0.624045 0.527885
v 0.312450 -0.905894 0.511307
v 0.333333 -0.905894 0.333333
v 0.339204 0.624045 0.642025
v 0.375335 1.290711 0.690406
v 1.000000 0.624045 0.333333
v 1.000000 1.290711 0.333333
v -0.434584 -0.905894 0.392321
v -0.064423 1.957378 0.064423
v 0.000000 -0.905894 0.333333
v 0.000000 1.290711 0.714911
v -0.506503 -0.905894 0.254984
v 0.000000 0.624045 0.711135
v -0.621740 1.290711 0.626000
v -0.548983 0.624045 0.527885
v -0.312450 -0.905894 0.511307
v 0.000000 1.957378 0.064423
v 0.000000 -0.905894 0.520307
v -0.333333 -0.905894 0.333333
v -0.339204 0.624045 0.642025
v -0.375335 1.290711 0.690406
v -1.000000 0.624045 0.333333
v -1.000000 1.290711 0.333333
v 0.434584 -0.905894 -0.392321
v 0.064423 1.957378 -0.064423
v 0.506503 -0.905894 -0.254984
v 0.621740 1.290711 -0.626000
v 0.548983 0.624045 -0.527885
v 0.312450 -0.905894 -0.511307
v 0.333333 -0.905894 -0.333333
v 0.339204 0.624045 -0.642025
v 0.375335 1.290711 -0.690406
v 1.000000 0.624045 -0.333333
v 1.000000 1.290711 -0.333333
v 0.543427 -0.905894 0.000000
v 0.333333 -0.905894 0.000000
v 1.000000 0.624045 0.000000
v 1.000000 1.290711 0.000000
v 0.064423 1.957378 0.000000
v -0.434584 -0.905894 -0.392321
v -0.064423 1.957378 -0.064423
v 0.000000 -0.905894 -0.333333
v 0.000000 1.290711 -0.714911
v -0.506503 -0.905894 -0.254984
v 0.000000 0.624045 -0.711135
v -0.621740 1.290711 -0.626000
v -0.548983 0.624045 -0.527885
v -0.312450 -0.905894 -0.511307
v 0.000000 1.957378 -0.064423
v 0.000000 -0.905894 -0.520307
v -0.333333 -0.905894 -0.333333
v -0.339204 0.624045 -0.642025
v -0.375335 1.290711 -0.690406
v -1.000000 0.624045 -0.333333
v -1.000000 1.290711 -0.333333
v -0.543427 -0.905894 0.000000
v 0.000000 -0.905894 0.000000
v -0.333333 -0.905894 0.000000
v -1.000000 0.624045 0.000000
v -1.000000 1.290711 0.000000
v -0.064423 1.957378 0.000000
v 0.000000 1.957378 0.000000
vt 0.541667 0.666667
vt 0.625000 0.750000
vt 0.541667 0.750000
vt 0.291667 0.666667
vt 0.375000 0.666667
vt 0.375000 0.750000
vt 0.291667 0.750000
vt 0.375000 0.833333
vt 0.458333 0.833333
vt 0.458333 0.875000
vt 0.375000 0.875000
vt 0.541667 0.833333
vt 0.625000 0.833333
vt 0.625000 0.875000
vt 0.541667 0.875000
vt 0.250000 0.666667
vt 0.250000 0.750000
vt 0.250000 0.625000
vt 0.291667 0.625000
vt 0.375000 0.625000
vt 0.458333 0.750000
vt 0.458333 0.666667
vt 0.458333 0.625000
vt 0.541667 0.625000
vt 0.625000 0.625000
vt 0.625000 0.666667
vt 0.625000 0.416667
vt 0.625000 0.375000
vt 0.541667 0.666667
vt 0.541667 0.750000
vt 0.625000 0.750000
vt 0.291667 0.666667
vt 0.291667 0.750000
vt 0.375000 0.750000
vt 0.375000 0.666667
vt 0.375000 0.833333
vt 0.458333 0.833333
vt 0.541667 0.833333
vt 0.625000 0.833333
vt 0.291667 0.625000
vt 0.375000 0.625000
vt 0.458333 0.750000
vt 0.458333 0.666667
vt 0.458333 0.625000
vt 0.541667 0.625000
vt 0.625000 0.666667
vt 0.625000 0.625000
vt 0.541667 0.666667
vt 0.541667 0.750000
vt 0.625000 0.750000
vt 0.291667 0.666667
vt 0.291667 0.750000
vt 0.375000 0.750000
vt 0.375000 0.666667
vt 0.375000 0.833333
vt 0.375000 0.875000
vt 0.458333 0.875000
vt 0.458333 0.833333
vt 0.541667 0.833333
vt 0.541667 0.875000
vt 0.625000 0.875000
vt 0.625000 0.833333
vt 0.250000 0.666667
vt 0.250000 0.750000
vt 0.458333 0.750000
vt 0.458333 0.666667
vt 0.625000 0.666667
vt 0.625000 0.375000
vt 0.541667 0.666667
vt 0.625000 0.750000
vt 0.541667 0.750000
vt 0.291667 0.666667
vt 0.375000 0.666667
vt 0.375000 0.750000
vt 0.291667 0.750000
vt 0.375000 0.833333
vt 0.458333 0.833333
vt 0.541667 0.833333
vt 0.625000 0.833333
vt 0.458333 0.750000
vt 0.458333 0.666667
vt 0.625000 0.666667
vn 0.3961 0.7623 0.5119
vn 0.0000 -1.0000 0.0000
vn 0.1184 -0.1048 0.9874
vn 0.0400 0.6958 0.7171
vn 0.1298 -0.0423 0.9906
vn 0.5720 -0.0973 0.8144
vn 0.3613 -0.1309 0.9232
vn 0.1765 0.7163 0.6752
vn 0.5287 -0.1633 0.8330
vn 0.5045 -0.0907 0.8586
vn 0.9529 -0.2974 0.0598
vn 1.0000 0.0000 0.0000
vn 0.5803 0.8144 0.0000
vn 0.0000 1.0000 0.0000
vn -0.3961 0.7623 0.5119
vn -0.1184 -0.1048 0.9874
vn -0.0400 0.6958 0.7171
vn -0.1298 -0.0423 0.9906
vn -0.5720 -0.0973 0.8144
vn -0.3613 -0.1309 0.9232
vn -0.1765 0.7163 0.6752
vn -0.5287 -0.1633 0.8330
vn -0.5045 -0.0907 0.8586
vn -0.9529 -0.2974 0.0598
vn -1.0000 0.0000 0.0000
vn -0.5803 0.8144 0.0000
vn 0.3961 0.7623 -0.5119
vn 0.1184 -0.1048 -0.9874
vn 0.0400 0.6958 -0.7171
vn 0.1298 -0.0423 -0.9906
vn 0.5720 -0.0973 -0.8144
vn 0.3613 -0.1309 -0.9232
vn 0.1765 0.7163 -0.6752
vn 0.5287 -0.1633 -0.8330
vn 0.5045 -0.0907 -0.8586
vn 0.9529 -0.2974 -0.0598
vn -0.3961 0.7623 -0.5119
vn -0.1184 -0.1048 -0.9874
vn -0.0400 0.6958 -0.7171
vn -0.1298 -0.0423 -0.9906
vn -0.5720 -0.0973 -0.8144
vn -0.3613 -0.1309 -0.9232
vn -0.1765 0.7163 -0.6752
vn -0.5287 -0.1633 -0.8330
vn -0.5045 -0.0907 -0.8586
vn -0.9529 -0.2974 -0.0598
usemtl Material.002
s off
f 11/1/1 2/2/1 4/3/1
f 7/4/2 3/5/2 1/6/2 6/7/2
f 6/8/3 8/9/3 17/10/3 22/11/3
f 9/12/4 2/13/4 21/14/4 15/15/4
f 8/9/5 9/12/5 15/15/5 17/10/5
f 14/16/2 7/4/2 6/7/2 22/17/2
f 61/18/2 40/19/2 7/4/2 14/16/2
f 40/19/2 39/20/2 3/5/2 7/4/2
f 1/6/6 5/21/6 8/9/6 6/8/6
f 5/21/7 4/3/7 9/12/7 8/9/7
f 4/3/8 2/13/8 9/12/8
f 3/5/9 10/22/9 5/21/9 1/6/9
f 10/22/10 11/1/10 4/3/10 5/21/10
f 39/20/11 41/23/11 10/22/11 3/5/11
f 41/23/12 42/24/12 11/1/12 10/22/12
f 42/24/13 43/25/13 2/26/13 11/1/13
f 2/26/14 43/25/14 66/27/14 21/28/14
f 27/29/15 18/30/15 13/31/15
f 23/32/2 20/33/2 12/34/2 16/35/2
f 20/36/16 22/11/16 17/10/16 24/37/16
f 25/38/17 15/15/17 21/14/17 13/39/17
f 24/37/18 17/10/18 15/15/18 25/38/18
f 14/16/2 22/17/2 20/33/2 23/32/2
f 61/18/2 14/16/2 23/32/2 62/40/2
f 62/40/2 23/32/2 16/35/2 60/41/2
f 12/34/19 20/36/19 24/37/19 19/42/19
f 19/42/20 24/37/20 25/38/20 18/30/20
f 18/30/21 25/38/21 13/39/21
f 16/35/22 12/34/22 19/42/22 26/43/22
f 26/43/23 19/42/23 18/30/23 27/29/23
f 60/41/24 16/35/24 26/43/24 63/44/24
f 63/44/25 26/43/25 27/29/25 64/45/25
f 64/45/26 27/29/26 13/46/26 65/47/26
f 13/46/14 21/28/14 66/27/14 65/47/14
f 38/48/27 31/49/27 29/50/27
f 34/51/2 33/52/2 28/53/2 30/54/2
f 33/55/28 54/56/28 49/57/28 35/58/28
f 36/59/29 47/60/29 53/61/29 29/62/29
f 35/58/30 49/57/30 47/60/30 36/59/30
f 46/63/2 54/64/2 33/52/2 34/51/2
f 61/18/2 46/63/2 34/51/2 40/19/2
f 40/19/2 34/51/2 30/54/2 39/20/2
f 28/53/31 33/55/31 35/58/31 32/65/31
f 32/65/32 35/58/32 36/59/32 31/49/32
f 31/49/33 36/59/33 29/62/33
f 30/54/34 28/53/34 32/65/34 37/66/34
f 37/66/35 32/65/35 31/49/35 38/48/35
f 39/20/36 30/54/36 37/66/36 41/23/36
f 41/23/12 37/66/12 38/48/12 42/24/12
f 42/24/13 38/48/13 29/67/13 43/25/13
f 29/67/14 53/68/14 66/27/14 43/25/14
f 59/69/37 45/70/37 50/71/37
f 55/72/2 48/73/2 44/74/2 52/75/2
f 52/76/38 56/77/38 49/57/38 54/56/38
f 57/78/39 45/79/39 53/61/39 47/60/39
f 56/77/40 57/78/40 47/60/40 49/57/40
f 46/63/2 55/72/2 52/75/2 54/64/2
f 61/18/2 62/40/2 55/72/2 46/63/2
f 62/40/2 60/41/2 48/73/2 55/72/2
f 44/74/41 51/80/41 56/77/41 52/76/41
f 51/80/42 50/71/42 57/78/42 56/77/42
f 50/71/43 45/79/43 57/78/43
f 48/73/44 58/81/44 51/80/44 44/74/44
f 58/81/45 59/69/45 50/71/45 51/80/45
f 60/41/46 63/44/46 58/81/46 48/73/46
f 63/44/25 64/45/25 59/69/25 58/81/25
f 64/45/26 65/47/26 45/82/26 59/69/26
f 45/82/14 65/47/14 66/27/14 53/68/14
